<svg id="Group_16072" data-name="Group 16072" xmlns="http://www.w3.org/2000/svg" xmlns:xlink="http://www.w3.org/1999/xlink" width="40.919" height="36.03" viewBox="0 0 40.919 36.03">
  <defs>
    <clipPath id="clip-path">
      <rect id="Rectangle_14" data-name="Rectangle 14" width="40.919" height="36.03" fill="#000"/>
    </clipPath>
  </defs>
  <g id="Group_16071" data-name="Group 16071" clip-path="url(#clip-path)">
    <path id="Path_3007" data-name="Path 3007" d="M40.919,6.432q-.909,3.145-1.816,6.29-1.463,5.1-2.919,10.212a1.283,1.283,0,0,1-1.47,1.108H14.695c-.67,0-.971.27-1.078.968a1.139,1.139,0,0,0,.807,1.3,2.537,2.537,0,0,0,.752.073q9.809,0,19.618,0a1.221,1.221,0,0,1,1.355,1.158,1.2,1.2,0,0,1-1.219,1.291c-1.292.011-2.584,0-3.993,0a3.826,3.826,0,0,1,2.331,1.737,3.563,3.563,0,0,1,.372,2.776,3.637,3.637,0,0,1-7.112-.424,3.672,3.672,0,0,1,2.749-4.07H18.93a3.778,3.778,0,0,1,2.252,1.687,3.573,3.573,0,0,1,.4,2.773,3.638,3.638,0,0,1-7.115-.354,3.689,3.689,0,0,1,2.79-4.124c-.922,0-1.737,0-2.552,0a3.575,3.575,0,0,1-3.255-5.079,3,3,0,0,0,.137-2.345C9.822,15.328,8.095,9.233,6.356,3.141a2.629,2.629,0,0,1-.088-.307c-.046-.293-.211-.378-.5-.375-1.438.013-2.877-.015-4.315.015A1.423,1.423,0,0,1,0,1.637v-.8A1.428,1.428,0,0,1,1.452,0C3.29.029,5.128.009,6.965.012a1.244,1.244,0,0,1,1.37,1.024c.311,1.074.638,2.144.914,3.227.109.428.3.555.735.554Q24.726,4.8,39.468,4.8a1.435,1.435,0,0,1,1.451.836ZM24.105,7.26H10.643c-.527,0-.527,0-.382.522,0,.013.006.026.01.039q1.91,6.678,3.813,13.358a.482.482,0,0,0,.554.417q9.467-.013,18.935,0a.463.463,0,0,0,.528-.4q1.908-6.72,3.832-13.436c.143-.5.139-.5-.366-.5H24.105M18.077,31.243a1.163,1.163,0,1,0,1.146,1.168,1.228,1.228,0,0,0-1.146-1.168m12.056,0A1.163,1.163,0,1,0,31.284,32.4a1.226,1.226,0,0,0-1.151-1.159" transform="translate(0 -0.001)" fill="#000"/>
  </g>
</svg>
