<svg xmlns="http://www.w3.org/2000/svg" xmlns:xlink="http://www.w3.org/1999/xlink" width="105.396" height="72.496" viewBox="0 0 105.396 72.496">
  <defs>
    <clipPath id="clip-path">
      <rect id="Rectangle_23" data-name="Rectangle 23" width="105.396" height="72.496" fill="#cb1e0f"/>
    </clipPath>
  </defs>
  <g id="Group_16096" data-name="Group 16096" clip-path="url(#clip-path)">
    <path id="Path_3353" data-name="Path 3353" d="M0,162.862A2.048,2.048,0,0,1,1.968,161.8c5.206.006,10.412-.005,15.618.009,1.3,0,2.044.644,2.051,1.664s-.739,1.685-2.022,1.689c-5.206.014-10.412,0-15.618.016a2.635,2.635,0,0,1-2-.879Z" transform="translate(0 -117.353)" fill="#cb1e0f"/>
    <path id="Path_3354" data-name="Path 3354" d="M125.647,71.88c1.679,0,3.358-.018,5.037,0a2.767,2.767,0,0,1,3.088,2.622c.116.721.555.664,1.033.664q5.14,0,10.279,0c3.2,0,4.723,1.532,4.747,4.708.033,4.419.1,8.837.12,13.255a1.744,1.744,0,0,0,.839,1.618c1.28.858,2.508,1.793,3.768,2.681a4.053,4.053,0,0,1,1.737,4.589c-.971,3.885-1.992,7.761-3.106,11.608a5.859,5.859,0,0,1-5.086,4.349,2.107,2.107,0,0,0-1.69,1.18c-2.138,3.475-5.17,5.527-9.373,5.461a6.213,6.213,0,0,1-6.208-5.6c-.1-.859-.452-.98-1.172-.979q-16.343.021-32.687-.008a1.609,1.609,0,0,0-1.583.979c-2.1,3.567-5.152,5.628-9.388,5.6a6.206,6.206,0,0,1-6.215-5.34c-.157-1-.561-1.3-1.538-1.247-1.572.079-3.151.037-4.727.016-2.3-.031-3.561-1.607-2.995-3.814.944-3.681,1.937-7.35,2.933-11.017.351-1.293,1.127-1.84,2.1-1.581,1.041.276,1.43,1.156,1.079,2.476-.843,3.177-1.673,6.357-2.553,9.524-.219.79-.029,1.081.781,1.069,1.473-.022,2.948-.037,4.419.008a1.53,1.53,0,0,0,1.543-.9,10.77,10.77,0,0,1,8.457-5.643,6.475,6.475,0,0,1,7.221,5.518c.1.812.4,1.027,1.152,1.026q10.587-.026,21.174,0a1.128,1.128,0,0,0,1.274-1q4.975-18.657,9.989-37.3c.3-1.121.266-1.162-.886-1.165-2.673-.006-5.345,0-8.018,0a7.935,7.935,0,0,1-1.026-.031,1.749,1.749,0,0,1-1.637-1.681A1.685,1.685,0,0,1,120.3,71.9c1.781-.036,3.563-.01,5.345-.01Zm9.827,33.01c-2.877,0-5.755.011-8.633-.009-.63,0-1,.149-1.178.832-.687,2.686-1.413,5.362-2.159,8.032-.21.75.013.98.763.969,2.021-.03,4.043-.04,6.063.005a1.616,1.616,0,0,0,1.624-.95,10.854,10.854,0,0,1,6.967-5.356c3.894-.985,7.447.827,8.493,4.313a9.945,9.945,0,0,1,.278,1.3c.091.577.371.669.857.407a3.118,3.118,0,0,0,1.574-2.055c.551-2.085,1.085-4.175,1.69-6.244.25-.855.3-1.329-.852-1.294a1.572,1.572,0,0,1-1.606-1.558,1.725,1.725,0,0,1,1.491-1.7,10.725,10.725,0,0,1,1.229-.063c.4-.023.884.081,1.014-.465.114-.478-.232-.755-.573-1-1.307-.94-2.631-1.857-3.919-2.822a2.96,2.96,0,0,0-1.907-.591q-4.83.035-9.66.006c-3.242-.017-5.058-2.33-4.29-5.478.39-1.6.832-3.179,1.283-4.759a6.263,6.263,0,0,1,6.165-4.649c1.473-.009,2.946,0,4.419,0,1.922,0,1.887,0,1.887-1.883,0-.941-.292-1.36-1.3-1.349q-5.6.06-11.2,0a1.169,1.169,0,0,0-1.333,1.056q-2.751,10.426-5.582,20.83c-.243.892-.045,1.13.866,1.125,5.172-.032,10.346-.018,15.518-.01a5.127,5.127,0,0,1,1.321.121,1.547,1.547,0,0,1,1.248,1.663,1.565,1.565,0,0,1-1.413,1.53,5.973,5.973,0,0,1-1.025.044q-4.059,0-8.119,0m5.753-11.609c1.472,0,2.944-.02,4.416.009.686.014.992-.205.979-.94q-.052-3.131-.007-6.264c.01-.71-.243-.976-.954-.965-1.814.03-3.628,0-5.443.012a2.773,2.773,0,0,0-3.013,2.245c-.452,1.506-.845,3.031-1.234,4.555-.255,1,0,1.323,1.045,1.34,1.4.023,2.807.005,4.21.007m-3.791,28a7.423,7.423,0,0,0,6.88-5.73,3.222,3.222,0,0,0-3.555-4.069,7.471,7.471,0,0,0-6.608,5.934c-.36,2.367.9,3.852,3.284,3.865m-51.012,0a7.371,7.371,0,0,0,6.744-5.619c.523-2.644-1.126-4.448-3.8-4.163a7.676,7.676,0,0,0-6.283,5.6c-.56,2.476.818,4.2,3.345,4.184" transform="translate(-51.054 -52.128)" fill="#cb1e0f"/>
    <path id="Path_3355" data-name="Path 3355" d="M53.661,24.682A24.732,24.732,0,1,1,78.342,49.464,24.7,24.7,0,0,1,53.661,24.682m3.35-.02A21.372,21.372,0,1,0,78.4,3.354,21.264,21.264,0,0,0,57.011,24.662" transform="translate(-38.919 0)" fill="#cb1e0f"/>
    <path id="Path_3356" data-name="Path 3356" d="M24.217,189.134c-1.506,0-3.012.017-4.518-.006-1.222-.019-1.944-.655-1.943-1.649s.685-1.674,1.92-1.688q4.62-.054,9.241,0c1.3.016,1.987.7,1.938,1.763-.045.985-.759,1.561-2.017,1.576-1.54.018-3.08,0-4.621,0" transform="translate(-12.878 -134.73)" fill="#cb1e0f"/>
    <path id="Path_3357" data-name="Path 3357" d="M39.038,213.019c-.546,0-1.095.03-1.638-.008a1.643,1.643,0,0,1-1.672-1.6,1.587,1.587,0,0,1,1.476-1.669,13.4,13.4,0,0,1,3.573,0,1.537,1.537,0,0,1,1.449,1.771,1.614,1.614,0,0,1-1.652,1.5c-.51.032-1.024.006-1.536,0" transform="translate(-25.912 -152.037)" fill="#cb1e0f"/>
    <path id="Path_3358" data-name="Path 3358" d="M316.7,231.347a1.675,1.675,0,0,1-1.7-1.566,1.638,1.638,0,0,1,3.273-.122,1.651,1.651,0,0,1-1.571,1.688" transform="translate(-228.459 -165.438)" fill="#cb1e0f"/>
    <path id="Path_3359" data-name="Path 3359" d="M132.259,229.606a1.662,1.662,0,0,1-1.575,1.694,1.631,1.631,0,1,1,1.575-1.694" transform="translate(-93.554 -165.391)" fill="#cb1e0f"/>
    <path id="Path_3360" data-name="Path 3360" d="M121.914,50.235a1.239,1.239,0,0,1,.515.04c1.361.663,2.173-.094,3.052-1.012,2.083-2.176,4.246-4.274,6.374-6.407a2.2,2.2,0,0,1,1.48-.834,1.594,1.594,0,0,1,1.516.876,1.509,1.509,0,0,1-.292,1.887c-.821.873-1.68,1.709-2.526,2.557-1.645,1.648-3.28,3.305-4.946,4.931a1.486,1.486,0,0,0-.469,1.624,4.889,4.889,0,0,1-6.006,6.054,1.537,1.537,0,0,0-1.708.5c-.768.827-1.574,1.622-2.4,2.394a1.6,1.6,0,0,1-2.38.1,1.62,1.62,0,0,1,.049-2.387c.79-.854,1.608-1.686,2.466-2.471a1.492,1.492,0,0,0,.461-1.714,4.93,4.93,0,0,1,4.812-6.143m1.56,4.933a1.552,1.552,0,0,0-1.662-1.554,1.491,1.491,0,0,0-1.523,1.564,1.547,1.547,0,0,0,1.594,1.62,1.563,1.563,0,0,0,1.591-1.63" transform="translate(-82.41 -30.477)" fill="#cb1e0f"/>
    <path id="Path_3361" data-name="Path 3361" d="M194.079,87.242c-.273-.014-.55-.006-.82-.046a1.738,1.738,0,0,1-1.62-1.694,1.7,1.7,0,0,1,1.777-1.628,12.377,12.377,0,0,1,1.335,0,1.725,1.725,0,0,1,1.828,1.579,1.76,1.76,0,0,1-1.68,1.75,6.435,6.435,0,0,1-.821.005c0,.012,0,.023,0,.035" transform="translate(-138.991 -60.818)" fill="#cb1e0f"/>
    <path id="Path_3362" data-name="Path 3362" d="M137.546,140.412c0-.137,0-.274,0-.411.033-1.23.619-1.971,1.6-2.019s1.71.778,1.758,2a7.127,7.127,0,0,1-.053,1.433,1.648,1.648,0,0,1-3.289-.177c-.024-.272,0-.547,0-.821Z" transform="translate(-99.758 -100.074)" fill="#cb1e0f"/>
    <path id="Path_3363" data-name="Path 3363" d="M140.824,26.533a4.4,4.4,0,0,1-.191,1.32,1.558,1.558,0,0,1-1.57,1.091,1.516,1.516,0,0,1-1.556-1.242,5.345,5.345,0,0,1,0-2.341,1.531,1.531,0,0,1,1.621-1.292,1.505,1.505,0,0,1,1.541,1.251,10.97,10.97,0,0,1,.159,1.213" transform="translate(-99.635 -17.457)" fill="#cb1e0f"/>
    <path id="Path_3364" data-name="Path 3364" d="M80.124,87.253a9.218,9.218,0,0,1-1.015-.105,1.582,1.582,0,0,1-1.4-1.637,1.625,1.625,0,0,1,1.545-1.618,9.408,9.408,0,0,1,1.534-.019,1.691,1.691,0,0,1,1.8,1.69,1.709,1.709,0,0,1-1.75,1.651c-.237.022-.478,0-.717,0,0,.012,0,.024,0,.035" transform="translate(-56.361 -60.816)" fill="#cb1e0f"/>
  </g>
</svg>
