<svg id="Layer_1" data-name="Layer 1" xmlns="http://www.w3.org/2000/svg" viewBox="0 0 551.46 551.16"><defs><style>.cls-1{fill:#cc4e35;}</style></defs><title>Untitled-1</title><path class="cls-1" d="M415.88,663.21c-2.74-.27-5.77.13-8.18-.9-32.83-14-58.83-6.65-82.81,20.48-17.84,20.18-41,16.44-57.78-3-20.77-24.11-43-29.2-73.2-19.56-28.44,9.08-43.86.1-51.42-29.74-7.61-30-22.74-46.65-53.48-54.11-31.15-7.56-39.11-22.82-30.18-53.52,8-27.59,4.7-48.2-17.38-68.75-25.7-23.92-25.74-42.14-.61-65.89C62.33,367.9,67.63,347.8,59.17,319.7c-9.39-31.23-1.53-46.27,29-54.13,29.93-7.7,46.71-22.66,54.14-53.47,7.51-31.17,22.87-39.48,53.45-30.14,29.22,8.93,49.89,2.91,70.85-19.26,22.58-23.88,40.77-23.45,63.85,1.16,20.26,21.61,40.39,26.82,68.49,18.37,31.23-9.39,46.27-1.53,54.15,29,7.73,29.88,22.59,46.75,53.44,54.16,31.12,7.47,39.1,22.76,30.23,53.49-8,27.56-4.78,48.16,17.4,68.73,25.7,23.82,25.74,42.2.64,66C533.31,473.9,528,494,536.43,522.05c9.34,31.29,1.58,46.75-29,54.05-32,7.64-47.24,25.14-55.4,56.06-3.64,13.78-19.66,24.28-30.07,36.27Zm105.46-364c-7.2-5-15.58-14.57-25.68-17-31.94-7.62-52.74-24.64-58-57.91-3.86-24.32-18.73-30.16-39.79-22.87C367.34,212,342.06,206,321.27,181.08,306.55,163.44,291,161.35,275.48,180c-21.39,25.7-47.27,32.26-78.92,21.26-19.52-6.79-34.13-1.83-38.11,21.57-5.51,32.41-23.92,52.93-57.18,58.2-24.36,3.86-30.36,18.82-22.84,39.75,11.5,32,2.7,57.3-22.21,78.69-15.47,13.28-17.77,27.66-1,41.59,27.37,22.76,34.28,50.18,22.49,83.77-6.79,19.34,1.17,31.74,22.12,35.37,32.43,5.62,52.9,24,58.17,57.22,3.87,24.38,18.77,30.15,39.77,22.85,30.55-10.62,55.84-4.48,76.57,20.41,16.25,19.51,32.19,17.95,47.89-.8,20-23.93,44.57-30.15,74.12-19.89,22.15,7.69,37.47,1.78,41.79-23.68,5.16-30.43,22.4-49.57,53.64-54.65,26.2-4.26,33.36-19.55,24.93-43.46-10-28.39-4.13-52.5,19.1-71.76,21.64-17.93,19.77-34.79-.82-52-22.29-18.65-28-42-18.81-69.42C518.17,319,518.74,312.44,521.34,299.21Z" transform="translate(-22.08 -145.09)"/><path class="cls-1" d="M294.34,593.84c-96.47-1.83-171.79-80.11-169.72-176.4C126.69,320.8,205,245.59,301.16,247.79c96.64,2.21,171.47,80,169.77,176.52C469.23,520.56,391,595.68,294.34,593.84Zm2.84-18.58c84.86,0,154.58-69.15,155-153.83.42-84.33-69.78-155.06-153.78-155a154.91,154.91,0,0,0-155,153.85C142.65,504.37,213,575.23,297.18,575.26Z" transform="translate(-22.08 -145.09)"/><path class="cls-1" d="M278,427.79c25.88-26.87,46.3-47.82,66.43-69,15.2-16,32.57-23.56,50.14-6.14,17.23,17.09,11,34.91-4.75,50.56-27.36,27.24-54.57,54.63-81.91,81.89C290.67,502.23,273,504,255,486.09c-17.58-17.52-35.2-35-52.56-52.73-14.34-14.66-16.72-31.34-2.34-46.44,14.67-15.4,31.78-13.4,46,1.39C256.87,399.43,265.7,412.36,278,427.79Zm-56.44-32.22c-4.16,3.85-9.66,6.57-9.94,9.74-.41,4.69,1.6,10.93,4.85,14.37,15.72,16.68,32.61,32.27,48.28,49,11.28,12.05,20.75,12.08,32.24.2,25.52-26.36,52.16-51.66,77.3-78.37,5.09-5.4,5.58-15.14,8.18-22.87-8.52,2-19.42,1.31-25.15,6.43-21.17,18.92-41.06,39.35-60.58,60-11.4,12.07-20.83,12.57-31.88,0a374.07,374.07,0,0,0-27.21-27.25C233.17,402.7,227.61,399.75,221.55,395.57Z" transform="translate(-22.08 -145.09)"/></svg>