<svg id="Group_16092" data-name="Group 16092" xmlns="http://www.w3.org/2000/svg" xmlns:xlink="http://www.w3.org/1999/xlink" width="75.494" height="75.497" viewBox="0 0 75.494 75.497">
  <defs>
    <clipPath id="clip-path">
      <rect id="Rectangle_22" data-name="Rectangle 22" width="75.494" height="75.497" fill="#cb1e0f"/>
    </clipPath>
  </defs>
  <g id="Group_16091" data-name="Group 16091" clip-path="url(#clip-path)">
    <path id="Path_3352" data-name="Path 3352" d="M34.757,0h5.891c.582.077,1.162.162,1.745.231A35.468,35.468,0,0,1,57.6,5.6C68.118,12.376,74.1,22,75.32,34.493a35.977,35.977,0,0,1-2.262,16.544,37.458,37.458,0,0,1-42.41,23.719C15.788,71.769,6.074,62.668,1.427,48.219A40,40,0,0,1,0,40.795V34.609c.033-.192.077-.384.1-.577a32.059,32.059,0,0,1,1.171-6.2,39.973,39.973,0,0,1,2.082-5.863A40.347,40.347,0,0,1,10.2,11.832,37.593,37.593,0,0,1,27.257,1.41,46.789,46.789,0,0,1,34.757,0M15.12,31.738l.384.118a12.222,12.222,0,0,1,.925-1.136,1.431,1.431,0,0,1,2.544.431c.566,1.088,1.122,2.183,1.639,3.3a1.088,1.088,0,0,0,1.148.7c2.257-.024,4.516.011,6.773-.02a1.8,1.8,0,0,1,1.743.975c.9,1.549,1.851,3.067,2.753,4.615a1.145,1.145,0,0,0,1.124.65c1.1-.024,2.209-.03,3.313.008a1.411,1.411,0,0,1,1.495,1.848c-.359,1.9-.749,3.8-1.12,5.7a2.449,2.449,0,0,1-.733,1.326,30.907,30.907,0,0,1-2.361,2.32,4.694,4.694,0,0,0-2.008,4.823,1.743,1.743,0,0,1-.849,1.755c-1.209.883-2.39,1.8-3.6,2.685a1.228,1.228,0,0,0-.56,1.113q.035,2.318,0,4.638c-.017,1.266-.789,1.828-2.01,1.46-1.01-.3-2-.677-3.007-.984a2.235,2.235,0,0,1-1.537-1.445c-.665-1.742-1.368-3.469-2.07-5.2a4.247,4.247,0,0,1-.315-1.646c.011-3.362-.009-6.724.018-10.086a.836.836,0,0,0-.8-.988c-1.327-.239-2.643-.538-3.97-.775a2.055,2.055,0,0,1-1.62-1.23,22.854,22.854,0,0,0-1.127-2.234A9.406,9.406,0,0,1,9.924,39a3.589,3.589,0,0,1,1.3-3.092c.489-.361.382-.609-.092-.916C9.4,33.866,7.7,32.7,5.974,31.574a2.57,2.57,0,0,1-1.128-1.48c-.21-.707-.461-1.4-.752-2.276-.117.341-.17.476-.209.615a33.711,33.711,0,0,0-.837,14.65A34.013,34.013,0,0,0,17.237,66.149c9.638,6.856,20.238,8.366,31.5,4.823a33.929,33.929,0,0,0,16.39-11.384c.459-.566.551-.95-.06-1.449-.529-.432-.956-.989-1.472-1.441a2.569,2.569,0,0,1-.884-2.159c.031-1.079-.006-2.16.012-3.239a3.076,3.076,0,0,0-.353-1.481c-1.23-2.43-2.394-4.9-3.682-7.294a8.206,8.206,0,0,1-1.01-4.29c.078-2.4.015-2.391-2-3.7a1.579,1.579,0,0,0-1.388-.217c-1.039.288-2.1.505-3.137.8a2.751,2.751,0,0,1-1.928-.157c-2.564-1.118-5.126-2.239-7.714-3.3a2.157,2.157,0,0,1-1.471-1.9c-.338-2.625-.709-5.246-1.1-7.865a1.891,1.891,0,0,1,.586-1.729q1.642-1.638,3.28-3.279a1.913,1.913,0,0,1,1.446-.6q3.534.022,7.068,0a1.617,1.617,0,0,1,1.471.8c.538.821,1.108,1.621,1.629,2.453a1.5,1.5,0,0,0,1.119.734c1.163.181,2.317.424,3.484.566.986.121,1.958.558,2.974.226,1.632-.533,3.254-1.1,4.891-1.618.5-.157.561-.326.267-.762a48.418,48.418,0,0,0-2.913-3.885c-.277-.334-.5-.389-.86-.138-.682.479-1.388.926-2.08,1.391a1.845,1.845,0,0,1-1.47.312c-2.846-.627-5.768-.943-8.5-2.02a3,3,0,0,0-2.286-.067,8.831,8.831,0,0,1-7.515-.262,1.216,1.216,0,0,0-.138-.051c-1.2-.429-1.512-1.133-.954-2.283.706-1.457,1.467-2.887,2.154-4.353a1.843,1.843,0,0,1,1.867-1.15c1.031.011,2.063-.031,3.092.01a3.886,3.886,0,0,0,2.315-.564c.2-.129.566-.161.573-.4.009-.336-.388-.315-.619-.4a34.664,34.664,0,0,0-21.395-.907c-.374.1-1.073.1-1.027.457.059.443.7.606,1.18.722.047.011.1.01.146.018q3.156.522,6.312,1.046c1.239.207,1.7.905,1.338,2.093-.33,1.079-.717,2.14-1.065,3.213A1.828,1.828,0,0,1,34.05,12.7c-.77.249-1.531.527-2.307.759a1.733,1.733,0,0,0-1.055.841c-.944,1.608-1.92,3.2-2.87,4.8a3.119,3.119,0,0,1-1.117,1.14q-2.756,1.631-5.493,3.293a4.05,4.05,0,0,1-1.591.526c-2.089.283-4.174.59-6.262.886-.281.04-.6.115-.614.426-.043.808-.274,1.642.495,2.323,1.18,1.046,2.439,2.089,1.882,4.042m57.64,5.854c-.058-1.134-.047-2.357-.177-3.582a35.5,35.5,0,0,0-3.351-11.68c-.277-.578-.59-.662-1.156-.464-1.83.638-3.676,1.229-5.51,1.857a3.356,3.356,0,0,1-1.666.158c-2.249-.375-4.494-.77-6.744-1.133a1.986,1.986,0,0,1-1.432-.92c-.524-.8-1.072-1.586-1.587-2.392a1.02,1.02,0,0,0-.971-.527,12.865,12.865,0,0,1-2.353-.014,5.435,5.435,0,0,0-5.587,2.319,1.877,1.877,0,0,0-.47,1.526c.293,1.939.584,3.878.841,5.822a1.048,1.048,0,0,0,.7.926q3.286,1.394,6.562,2.813a1.546,1.546,0,0,0,1.067.084c1.232-.327,2.479-.6,3.709-.933a1.924,1.924,0,0,1,1.673.295c1.079.726,2.156,1.456,3.249,2.161a1.8,1.8,0,0,1,.868,1.672c-.017,1.2.009,2.405-.009,3.608a2.937,2.937,0,0,0,.332,1.411c1.109,2.189,2.122,4.431,3.324,6.567a9.3,9.3,0,0,1,1.354,5.893,2.936,2.936,0,0,0,1.184,2.879c.7.564.657.623,1.143-.188a34.535,34.535,0,0,0,5-18.155M21.424,53.733c0,1.006.069,2.017-.014,3.016a11.639,11.639,0,0,0,1.214,6.258c.347.7.578,1.459.9,2.175a1.123,1.123,0,0,0,1.235.611c.443-.063.243-.571.253-.883.028-.858.034-1.717,0-2.575a2.354,2.354,0,0,1,1.112-2.244c.656-.427,1.213-1.023,1.9-1.39a3.5,3.5,0,0,0,2.041-4,2.317,2.317,0,0,1,.863-2.085c1.292-1.239,2.539-2.525,3.8-3.793a1.677,1.677,0,0,0,.554-.847c.21-1.082.406-2.168.645-3.244.117-.531-.114-.656-.573-.649-.736.01-1.473-.026-2.207.008a1.879,1.879,0,0,1-1.864-1.046c-.894-1.551-1.845-3.069-2.741-4.618a1.191,1.191,0,0,0-1.178-.675c-2.33.026-4.66,0-6.99.017a1.574,1.574,0,0,1-1.583-.962c-.4-.84-.847-1.66-1.244-2.5-.224-.476-.435-.5-.8-.13-1.219,1.243-2.457,2.469-3.692,3.7a1.21,1.21,0,0,0-.365.85,6.526,6.526,0,0,0,.856,4.232,9.488,9.488,0,0,1,.826,1.64,1.391,1.391,0,0,0,1.152.884c1.5.267,2.982.582,4.47.886,1.076.219,1.42.623,1.425,1.707.009,1.889,0,3.777,0,5.666M5.642,23.823a1.8,1.8,0,0,0,.057.29q.8,2.41,1.6,4.818a1.094,1.094,0,0,0,.436.577q2.112,1.411,4.223,2.824c.4.267.483.113.518-.3a2.17,2.17,0,0,0-.809-2.147,11.964,11.964,0,0,1-1.05-1.03,2.033,2.033,0,0,1-.657-1.578c.017-1.031-.007-2.062.008-3.092A1.489,1.489,0,0,1,11.439,22.5c1.455-.214,2.917-.386,4.368-.622a16.533,16.533,0,0,0,5.674-1.554,15.28,15.28,0,0,0,6.379-6.42c1.6-3,.831-2.248,4.1-3.326A1.779,1.779,0,0,0,33.24,9.158c.092-.369.013-.563-.371-.624-.484-.076-.964-.183-1.45-.244-2.523-.315-5.005-.732-6.991-2.531-.4-.364-.806-.2-1.226-.005A35.133,35.133,0,0,0,5.866,22.984a1.606,1.606,0,0,0-.224.84M50.2,11.218a3.575,3.575,0,0,1,.947.232,50.861,50.861,0,0,0,7.529,1.963,2.887,2.887,0,0,0,2.577-.545c.505-.382.58-.606.086-1.052a40.24,40.24,0,0,0-6.215-4.564,2,2,0,0,0-2.414-.066,10.172,10.172,0,0,1-7.048,1.7c-.121-.015-.245,0-.368,0a.66.66,0,0,0-.656.384q-.511,1.019-1.022,2.038a.4.4,0,0,0,.25.634,3.477,3.477,0,0,0,2.346.269c1.308-.4,2.656-.673,3.987-1" fill="#cb1e0f"/>
  </g>
</svg>
