<svg id="Group_16097" data-name="Group 16097" xmlns="http://www.w3.org/2000/svg" xmlns:xlink="http://www.w3.org/1999/xlink" width="76.991" height="76.966" viewBox="0 0 76.991 76.966">
  <defs>
    <clipPath id="clip-path">
      <rect id="Rectangle_24" data-name="Rectangle 24" width="76.991" height="76.966" fill="#cb1e0f"/>
    </clipPath>
  </defs>
  <g id="Group_16097-2" data-name="Group 16097" clip-path="url(#clip-path)">
    <path id="Path_3365" data-name="Path 3365" d="M76.991,39.8a13.981,13.981,0,0,1-1.841,4.254A5.6,5.6,0,0,0,74.542,48a10.266,10.266,0,0,1,.052,3.73,8.032,8.032,0,0,1-2.627,4.444c-.867.757-1.731,1.519-2.619,2.252a2.1,2.1,0,0,0-.724,1.1c-.292,1.035-.589,2.071-.938,3.088a7.7,7.7,0,0,1-5.021,5,13.273,13.273,0,0,1-1.714.548,5.885,5.885,0,0,0-3.82,2.646,8.449,8.449,0,0,1-5.2,3.69,14.821,14.821,0,0,1-4.556-.041,5.2,5.2,0,0,0-3.371.613,11.364,11.364,0,0,1-3.958,1.754,7.858,7.858,0,0,1-4.9-.626,19.622,19.622,0,0,1-2.274-1.156,4.945,4.945,0,0,0-3.8-.585c-3.219.566-6.073-.054-8.3-2.625-.722-.832-1.459-1.651-2.153-2.506A2.353,2.353,0,0,0,17.33,68.5c-.99-.265-1.974-.561-2.944-.894a7.265,7.265,0,0,1-5-5.093,10.624,10.624,0,0,0-4.162-6.3A7.215,7.215,0,0,1,2.4,49.1c.1-.844.114-1.7.2-2.542a3.461,3.461,0,0,0-.5-2.288c-.426-.676-.776-1.4-1.143-2.112a7.72,7.72,0,0,1-.069-7.284,15.447,15.447,0,0,1,1.022-2,5.113,5.113,0,0,0,.619-4.011c-.55-3.171.1-5.969,2.621-8.16.831-.723,1.651-1.459,2.505-2.153a2.356,2.356,0,0,0,.837-1.284q.4-1.485.9-2.944a7.24,7.24,0,0,1,5.08-5.008A10.69,10.69,0,0,0,20.81,5.105c1.684-2.339,4.247-3.125,7.126-2.789.844.1,1.7.106,2.543.194A3.617,3.617,0,0,0,32.7,2.021,18.942,18.942,0,0,1,37.037,0h3a31.891,31.891,0,0,1,5.18,2.354,2.434,2.434,0,0,0,1.364.238,24.644,24.644,0,0,1,4.328-.317,7.6,7.6,0,0,1,5.664,3.143,8.119,8.119,0,0,0,5.532,3.694,2.19,2.19,0,0,1,.358.112,7.416,7.416,0,0,1,5.286,5.365c.652,2.522,1.748,4.641,4.058,5.993a1.507,1.507,0,0,1,.228.194,7.828,7.828,0,0,1,2.69,6.7c-.079,1.121-.161,2.242-.257,3.362a2.51,2.51,0,0,0,.327,1.431,18.874,18.874,0,0,1,2.193,4.83ZM49.98,71.475a4.7,4.7,0,0,0,4.111-1.919c.729-.922,1.492-1.818,2.229-2.735a2.706,2.706,0,0,1,1.343-.908c1.288-.406,2.563-.852,3.852-1.258a4.712,4.712,0,0,0,3.267-3.334c.347-1.149.7-2.3,1.036-3.449a2.679,2.679,0,0,1,.892-1.35q1.641-1.373,3.236-2.8a4.4,4.4,0,0,0,1.591-3.579,24.991,24.991,0,0,0-.242-2.611,5.67,5.67,0,0,1,.655-4.173,24.8,24.8,0,0,0,1.458-2.877,4.471,4.471,0,0,0-.03-4.117c-.505-1.006-1.014-2.014-1.588-2.98a3.944,3.944,0,0,1-.533-2.513c.1-.969.144-1.945.26-2.912a5.236,5.236,0,0,0-2.18-5.32c-.754-.535-1.43-1.177-2.162-1.742a3.406,3.406,0,0,1-1.255-1.808c-.348-1.2-.8-2.371-1.161-3.567A4.707,4.707,0,0,0,61.388,12.2c-1.151-.341-2.3-.7-3.449-1.036a2.584,2.584,0,0,1-1.3-.844c-.917-1.092-1.855-2.168-2.8-3.237A4.43,4.43,0,0,0,50.21,5.453a20.767,20.767,0,0,0-2.536.235A5.751,5.751,0,0,1,43.361,5a26.579,26.579,0,0,0-2.742-1.392,4.469,4.469,0,0,0-4.249.046c-.977.508-1.968.993-2.912,1.558a3.933,3.933,0,0,1-2.515.525c-.97-.1-1.944-.147-2.912-.26A5.207,5.207,0,0,0,22.766,7.61c-.582.812-1.267,1.55-1.888,2.334A3.075,3.075,0,0,1,19.3,11.028c-1.245.376-2.467.826-3.709,1.21a4.708,4.708,0,0,0-3.31,3.38c-.324,1.1-.678,2.2-.992,3.306a2.859,2.859,0,0,1-.953,1.484c-1.078.895-2.131,1.82-3.18,2.75A4.426,4.426,0,0,0,5.54,26.8a22.373,22.373,0,0,0,.237,2.536,5.713,5.713,0,0,1-.665,4.244,27.579,27.579,0,0,0-1.426,2.809,4.435,4.435,0,0,0,.027,4.18c.513,1,1.019,2.01,1.589,2.98a3.761,3.761,0,0,1,.525,2.366c-.1.994-.141,2-.26,2.988a5.246,5.246,0,0,0,2.141,5.336c.853.61,1.629,1.327,2.448,1.985a2.71,2.71,0,0,1,.916,1.338c.4,1.264.851,2.512,1.234,3.781a4.748,4.748,0,0,0,3.485,3.392c1.083.305,2.152.661,3.234.97a2.868,2.868,0,0,1,1.478.962c.894,1.078,1.819,2.132,2.75,3.179a4.4,4.4,0,0,0,3.571,1.609,20.78,20.78,0,0,0,2.537-.226,5.827,5.827,0,0,1,4.385.7,27.593,27.593,0,0,0,2.537,1.3,4.646,4.646,0,0,0,4.591-.046c1.014-.545,2.041-1.066,3.045-1.627a2.943,2.943,0,0,1,1.724-.391c1.445.115,2.891.215,4.337.32" transform="translate(0)" fill="#cb1e0f"/>
    <path id="Path_3366" data-name="Path 3366" d="M102.183,74.68a30.1,30.1,0,1,1-37.8-28.914c.194-.051.387-.1.583-.143a1.574,1.574,0,0,1,1.924,1.125,1.509,1.509,0,0,1-1.056,1.886,34.2,34.2,0,0,0-4.95,1.74C52.491,54.389,47.272,60.95,45.6,70.094a26.941,26.941,0,0,0,23.186,31.513,26.945,26.945,0,0,0,10.165-52.8c-1.362-.363-1.922-1.047-1.674-2.033.259-1.03,1.106-1.378,2.485-1.021A30.143,30.143,0,0,1,101.9,70.549a24.607,24.607,0,0,1,.282,4.131" transform="translate(-33.553 -36.435)" fill="#cb1e0f"/>
    <path id="Path_3367" data-name="Path 3367" d="M105.179,101.925q0-5.332,0-10.664c0-1.786.547-2.339,2.333-2.347,2.153-.009,4.306,0,6.458,0a2.385,2.385,0,0,1,2,.638c.215.247.4.105.574-.054a2.1,2.1,0,0,0,.605-1.263,21.215,21.215,0,0,1,1.808-6.164,9.682,9.682,0,0,0,.746-4.032c.119-2.8,2.144-4.127,4.763-3.1a7.2,7.2,0,0,1,4.091,8.683c-.135.507-.314,1-.491,1.5a4.14,4.14,0,0,0-.122,2.224c.273,1.394.644,1.675,2.068,1.675q5.332,0,10.664,0a4.668,4.668,0,0,1,4.69,3.058,4.542,4.542,0,0,1-1.582,5.223.749.749,0,0,0-.3.763,5.616,5.616,0,0,1-1.2,4.362,1.138,1.138,0,0,0-.272.959,5.781,5.781,0,0,1-1.391,4.811,1.111,1.111,0,0,0-.269.885,6.067,6.067,0,0,1-6.138,6.735c-3.053.062-6.108.047-9.162,0a20.508,20.508,0,0,1-5.076-.951c-.8-.219-1.595-.426-2.394-.633-.707-.183-1.377-.371-1.988.33-.333.382-.928.33-1.427.332-2.278.009-4.556.02-6.834,0-1.587-.015-2.15-.61-2.152-2.218q-.009-5.369,0-10.739m11.157-.082v7.134c0,1.72,0,1.7,1.629,2.089A55.177,55.177,0,0,0,123.5,112.4a78.738,78.738,0,0,0,11.17.152,2.633,2.633,0,0,0,2.388-1.906c.14-.365.21-.713-.386-.82a1.458,1.458,0,0,1-1.361-1.586,1.524,1.524,0,0,1,1.554-1.507,2.17,2.17,0,0,0,1.924-1.645c.177-.538.156-.824-.549-.841a1.527,1.527,0,0,1-1.476-1.434,1.591,1.591,0,0,1,1.333-1.65c.147-.033.294-.061.442-.087a2.006,2.006,0,0,0,1.785-2.059c.023-.542-.154-.789-.726-.749a22.33,22.33,0,0,1-2.472.089,1.616,1.616,0,0,1-1.6-1.581,1.653,1.653,0,0,1,1.667-1.594c.275-.016.551-.009.826-.011a23.569,23.569,0,0,0,3.073-.124,1.392,1.392,0,0,0,1.33-1.367,1.329,1.329,0,0,0-1.207-1.461,6.33,6.33,0,0,0-1.193-.094c-4.806-.007-9.612,0-14.418-.01a1.541,1.541,0,0,1-1.625-1.072,1.492,1.492,0,0,1,.7-1.811c.406-.251.379-.5.272-.868a6.853,6.853,0,0,1,.185-4.49,10.806,10.806,0,0,0,.356-1.067,4.205,4.205,0,0,0-1.419-4.506c-.3-.2-.623-.568-1-.362-.321.178-.252.624-.261.969A11.211,11.211,0,0,1,121.8,83.5a16.232,16.232,0,0,0-1.4,4.648,10.135,10.135,0,0,1-.343,1.459,4.381,4.381,0,0,1-3.009,3.184.87.87,0,0,0-.719,1.018c.02,2.678.009,5.357.009,8.035m-7.952.012c0,2.978.022,5.957-.016,8.934-.009.738.232.956.944.919,1.048-.053,2.1-.03,3.152-.008.487.01.664-.182.663-.662q-.012-9.122,0-18.244c0-.529-.209-.7-.716-.688-1.051.024-2.1.046-3.152-.007-.7-.035-.9.212-.891.9.033,2.953.014,5.906.014,8.859" transform="translate(-84.072 -59.623)" fill="#cb1e0f"/>
    <path id="Path_3368" data-name="Path 3368" d="M185.915,44.783a1.549,1.549,0,1,1,1.519-1.6,1.508,1.508,0,0,1-1.519,1.6" transform="translate(-147.348 -33.321)" fill="#cb1e0f"/>
  </g>
</svg>
