<svg xmlns="http://www.w3.org/2000/svg" width="603.818" height="112.639" viewBox="0 0 603.818 112.639">
  <g id="Group_9" data-name="Group 9" transform="translate(-596.062 -867.274)">
    <path id="Path_367" data-name="Path 367" d="M608.936,885.858q6.648,0,6.652-6.856a6.181,6.181,0,0,0-6.652-6.648q-6.752,0-6.753,6.648a6.78,6.78,0,0,0,1.844,5.015,6.649,6.649,0,0,0,4.909,1.841" transform="translate(16.185 13.435)" fill="#dbd7d7"/>
    <path id="Path_368" data-name="Path 368" d="M720.675,892.594q0-7.468-7.366-8.7l7.366-8.288h-7.468l-8.8,9.72v5.117a10.711,10.711,0,0,1,5.729-1.64q4.6,0,4.6,3.48a2.443,2.443,0,0,1-2.763,2.763H700.622l-3.171,5.934h15.14q8.08,0,8.084-8.39" transform="translate(268.142 22.046)" fill="#cb1e0f"/>
    <path id="Path_369" data-name="Path 369" d="M604.613,885.858q6.648,0,6.648-6.856a6.176,6.176,0,0,0-6.648-6.648q-6.752,0-6.753,6.648a6.781,6.781,0,0,0,1.844,5.015,6.643,6.643,0,0,0,4.909,1.841" transform="translate(4.752 13.435)" fill="#dbd7d7"/>
    <path id="Path_370" data-name="Path 370" d="M757.773,895.031q6.648,0,6.651-6.855a6.182,6.182,0,0,0-6.651-6.648,6.634,6.634,0,0,0-4.909,1.841,6.5,6.5,0,0,0-1.844,4.807,6.778,6.778,0,0,0,1.844,5.015,6.633,6.633,0,0,0,4.909,1.841" transform="translate(409.812 37.694)" fill="#dbd7d7"/>
    <path id="Path_371" data-name="Path 371" d="M738.226,886.419q6.648,0,6.648-6.855a6.176,6.176,0,0,0-6.648-6.648q-6.752,0-6.754,6.648a6.779,6.779,0,0,0,1.844,5.015,6.628,6.628,0,0,0,4.909,1.84" transform="translate(358.117 14.921)" fill="#dbd7d7"/>
    <path id="Path_372" data-name="Path 372" d="M621.68,886.785q6.648,0,6.648-6.856a6.177,6.177,0,0,0-6.648-6.648q-6.752,0-6.753,6.648a6.774,6.774,0,0,0,1.844,5.015,6.629,6.629,0,0,0,4.909,1.841" transform="translate(49.889 15.886)" fill="#dbd7d7"/>
    <path id="Path_373" data-name="Path 373" d="M685.073,912.045q0,6.544-6.036,6.546-7.572,0-7.57-11.663,0-11.147,7.876-11.153,5.73,0,5.73,6.754Zm-68.648,5.011a6.7,6.7,0,0,1-5.627-2.66,11.431,11.431,0,0,1-2.048-7.162,11.7,11.7,0,0,1,2.1-7.264,6.555,6.555,0,0,1,5.471-2.763,9.094,9.094,0,0,1,6.039,2.252v12.377a22.565,22.565,0,0,0,.1,2.559,7.321,7.321,0,0,1-6.036,2.66m62.918-33.25q-8.9,0-14.426,5.729-6.139,6.55-6.138,17.8a19.513,19.513,0,0,0,3.069,11.255H642.411q-3.892,0-5.576-1.688t-1.691-5.678V877.154l-12.786,6.754v2.66a16.725,16.725,0,0,0-6.958-1.432,17.883,17.883,0,0,0-12.789,5.321q-6.549,6.342-6.549,16.47a21.94,21.94,0,0,0,4.607,14.017A18.245,18.245,0,0,0,615.707,928a17.105,17.105,0,0,0,10.741-3.375q5.221,6.347,14.736,6.345h37.956q8.594,0,13.605-5.117,5.117-5.111,5.219-13.915v-9.206q0-8.081-4.5-13.1-5.019-5.833-14.12-5.831" transform="translate(0 26.129)" fill="#cb1e0f"/>
    <path id="Path_374" data-name="Path 374" d="M626,886.785q6.648,0,6.652-6.856A6.182,6.182,0,0,0,626,873.281q-6.752,0-6.754,6.648a6.774,6.774,0,0,0,1.844,5.015A6.634,6.634,0,0,0,626,886.785" transform="translate(61.322 15.886)" fill="#dbd7d7"/>
    <path id="Path_375" data-name="Path 375" d="M678.556,882.9H668.427a5.071,5.071,0,0,1-1.33-3.171q0-3.073,3.375-3.068a7.494,7.494,0,0,1,4.913,2.147v-5.934a8.957,8.957,0,0,0-5.729-2.15,7.968,7.968,0,0,0-5.781,2.354,7.6,7.6,0,0,0-2.405,5.627,8.6,8.6,0,0,0,1.126,4.2h-3.069l-3.273,5.934h19.029Z" transform="translate(159.189 9.127)" fill="#cb1e0f"/>
    <path id="Path_376" data-name="Path 376" d="M697.985,920.058q0,3.991-1.637,5.678t-5.525,1.688h-43.7q-3.887,0-5.522-1.688t-1.637-5.678V873.814l-12.891,6.753v40.1q0,8.086,4.4,13.2,5.112,5.932,14.426,5.933h46.149q8.08,0,13.1-4.6,5.73-5.221,5.73-14.531V894.377l-12.891,6.754Z" transform="translate(82.028 17.296)" fill="#cb1e0f"/>
    <path id="Path_377" data-name="Path 377" d="M729.159,894.474q-6.752,0-6.754,6.652a6.776,6.776,0,0,0,1.844,5.011,6.635,6.635,0,0,0,4.91,1.841q6.648,0,6.651-6.852a6.182,6.182,0,0,0-6.651-6.652" transform="translate(334.137 71.935)" fill="#dbd7d7"/>
    <path id="Path_378" data-name="Path 378" d="M854.28,920.058q0,3.991-1.636,5.678t-5.526,1.688H822.972q-3.887,0-5.522-1.688t-1.64-5.678V894.377l-12.888,6.754v18.927q0,3.991-1.64,5.678t-5.522,1.688H771.615q-3.887,0-5.577-1.688t-1.687-5.678V873.814l-12.789,6.753v39.388q0,3.991-1.636,5.729t-5.526,1.739H711.047q-3.887,0-5.576-1.688t-1.687-5.78V903.588l-12.789,6.75v10.434q0,8.086,4.4,13.2Q700.308,939.8,709,939.8h36.523q7.572,0,12.483-3.991,4.806,3.991,12.377,3.991h26.6a19,19,0,0,0,12.381-3.991,18.99,18.99,0,0,0,12.381,3.991h26.6q8.08,0,13.1-4.6,5.73-5.221,5.729-14.531V894.377l-12.891,6.754Z" transform="translate(251.065 17.296)" fill="#cb1e0f"/>
    <path id="Path_379" data-name="Path 379" d="M765.34,879.448H755.211a5.092,5.092,0,0,1-1.331-3.171q0-3.072,3.379-3.069a7.5,7.5,0,0,1,4.909,2.147v-5.934a8.95,8.95,0,0,0-5.729-2.147,7.965,7.965,0,0,0-5.78,2.351,7.6,7.6,0,0,0-2.406,5.628,8.6,8.6,0,0,0,1.126,4.195h-3.069l-3.273,5.933h19.029Z" transform="translate(388.705 0)" fill="#cb1e0f"/>
    <path id="Path_380" data-name="Path 380" d="M795.462,901.13v18.931c0,2.66-.546,4.548-1.636,5.678s-2.934,1.688-5.525,1.688H764.158q-3.893,0-5.525-1.688c-1.094-1.13-1.637-3.018-1.637-5.678V873.813l-12.891,6.757v40.1q0,8.086,4.4,13.2,5.112,5.932,14.426,5.93h26.6q8.08,0,13.1-4.6,5.73-5.221,5.729-14.531V894.38Z" transform="translate(391.527 17.293)" fill="#cb1e0f"/>
    <path id="Path_381" data-name="Path 381" d="M742.549,872.915q-6.752,0-6.754,6.652a6.764,6.764,0,0,0,1.844,5.011,6.619,6.619,0,0,0,4.91,1.84q6.648,0,6.651-6.852a6.182,6.182,0,0,0-6.651-6.652" transform="translate(369.55 14.919)" fill="#dbd7d7"/>
    <path id="Path_382" data-name="Path 382" d="M642.953,895.031q6.648,0,6.652-6.855a6.182,6.182,0,0,0-6.652-6.648,6.629,6.629,0,0,0-4.909,1.841,6.505,6.505,0,0,0-1.844,4.807,6.779,6.779,0,0,0,1.844,5.015,6.627,6.627,0,0,0,4.909,1.841" transform="translate(106.15 37.694)" fill="#dbd7d7"/>
    <path id="Path_383" data-name="Path 383" d="M698.565,918.421q0,4.909-1.994,6.958t-6.7,2.045h-5.011v-40.31l-12.891,6.856v33.455H658.459L652.015,939.8h38.572q9.206,0,14.834-5.423,6.035-5.932,6.035-15.858V873.814l-12.891,6.855Z" transform="translate(147.978 17.296)" fill="#cb1e0f"/>
    <path id="Path_384" data-name="Path 384" d="M711.7,920.058q0,3.991-1.637,5.678t-5.525,1.688H692.261q-3.893,0-5.526-1.688t-1.636-5.678V873.814l-12.891,6.753v40.1q0,8.086,4.4,13.2,5.112,5.932,14.426,5.933h14.732q8.08,0,13.1-4.6,5.729-5.221,5.729-14.531V894.377L711.7,901.131Z" transform="translate(201.382 17.296)" fill="#cb1e0f"/>
    <path id="Path_385" data-name="Path 385" d="M724.837,894.474q-6.752,0-6.754,6.652a6.776,6.776,0,0,0,1.844,5.011,6.629,6.629,0,0,0,4.91,1.841q6.648,0,6.648-6.852a6.177,6.177,0,0,0-6.648-6.652" transform="translate(322.707 71.935)" fill="#dbd7d7"/>
    <path id="Path_386" data-name="Path 386" d="M684.239,894.474a6.632,6.632,0,0,0-4.913,1.841,6.509,6.509,0,0,0-1.844,4.811,6.777,6.777,0,0,0,1.844,5.011,6.632,6.632,0,0,0,4.913,1.841q6.643,0,6.648-6.852a6.182,6.182,0,0,0-6.648-6.652" transform="translate(215.33 71.935)" fill="#dbd7d7"/>
  </g>
</svg>
