<svg xmlns="http://www.w3.org/2000/svg" width="229.733" height="57.909" viewBox="0 0 229.733 57.909">
  <g id="Group_2" data-name="Group 2" transform="translate(-3.158 103.565)">
    <path id="Path_15" data-name="Path 15" d="M3.8-77.091l15.15-18.116H4.982v-5.223H27.214v4.906L12.064-77.407H27.609v5.221H3.8Z" transform="translate(0.493 2.423)" fill="#cb1e0f"/>
    <path id="Path_16" data-name="Path 16" d="M28.942-100.43h6.369L45.872-72.187H39.424l-2.136-6.289H26.726l-2.214,6.289h-6.29ZM28.348-83.1h7.317l-3.56-10.363h-.078Z" transform="translate(11.643 2.423)" fill="#dbd7d7"/>
    <path id="Path_17" data-name="Path 17" d="M35.2-100.429H48.492a17.59,17.59,0,0,1,3.679.355,7.949,7.949,0,0,1,2.847,1.168,5.439,5.439,0,0,1,1.84,2.156,7.58,7.58,0,0,1,.652,3.323,6.185,6.185,0,0,1-.97,3.558,7.041,7.041,0,0,1-2.869,2.335,6.792,6.792,0,0,1,3.9,2.631,7.828,7.828,0,0,1,1.285,4.528,7.773,7.773,0,0,1-.83,3.7,7.222,7.222,0,0,1-2.236,2.553,9.933,9.933,0,0,1-3.2,1.463,14.481,14.481,0,0,1-3.7.475H35.2ZM41.411-89H47.7a4.463,4.463,0,0,0,2.73-.793A2.985,2.985,0,0,0,51.5-92.36a3.3,3.3,0,0,0-.355-1.622,2.624,2.624,0,0,0-.95-.988,4,4,0,0,0-1.365-.495,9.057,9.057,0,0,0-1.6-.138H41.411Zm0,11.985h6.645a8.294,8.294,0,0,0,1.741-.179,4.279,4.279,0,0,0,1.463-.592,2.977,2.977,0,0,0,1.009-1.128,3.868,3.868,0,0,0,.376-1.819,3.655,3.655,0,0,0-1.225-3.106,5.244,5.244,0,0,0-3.245-.929H41.411Z" transform="translate(24.768 2.424)" fill="#dbd7d7"/>
    <path id="Path_18" data-name="Path 18" d="M50.943-77.091l15.15-18.116H52.13v-5.223H74.361v4.906L59.211-77.407H74.756v5.221H50.943Z" transform="translate(36.937 2.423)" fill="#cb1e0f"/>
    <path id="Path_19" data-name="Path 19" d="M65.736-85.9a17.7,17.7,0,0,1,.95-5.854A14.016,14.016,0,0,1,69.415-96.5a12.514,12.514,0,0,1,4.351-3.165,14.237,14.237,0,0,1,5.854-1.147,14.273,14.273,0,0,1,5.835,1.147A12.482,12.482,0,0,1,89.827-96.5a14.075,14.075,0,0,1,2.729,4.746A17.694,17.694,0,0,1,93.5-85.9a17.105,17.105,0,0,1-.949,5.736,13.716,13.716,0,0,1-2.729,4.668,12.724,12.724,0,0,1-4.372,3.124A14.245,14.245,0,0,1,79.62-71.22a14.209,14.209,0,0,1-5.854-1.149,12.758,12.758,0,0,1-4.351-3.124,13.659,13.659,0,0,1-2.729-4.668,17.106,17.106,0,0,1-.95-5.736m6.211,0a14.392,14.392,0,0,0,.415,3.461,9.308,9.308,0,0,0,1.326,3.026,6.789,6.789,0,0,0,2.372,2.156,7.248,7.248,0,0,0,3.56.81,7.248,7.248,0,0,0,3.56-.81,6.794,6.794,0,0,0,2.374-2.156,9.343,9.343,0,0,0,1.324-3.026A14.393,14.393,0,0,0,87.3-85.9a15.464,15.464,0,0,0-.417-3.6A9.524,9.524,0,0,0,85.554-92.6a6.731,6.731,0,0,0-2.374-2.175,7.268,7.268,0,0,0-3.56-.81,7.268,7.268,0,0,0-3.56.81A6.725,6.725,0,0,0,73.688-92.6,9.489,9.489,0,0,0,72.362-89.5a15.463,15.463,0,0,0-.415,3.6" transform="translate(48.371 2.13)" fill="#dbd7d7"/>
    <path id="Path_20" data-name="Path 20" d="M83.785-100.429h15.23a9.114,9.114,0,0,1,3.422.612,7.887,7.887,0,0,1,2.61,1.683,7.258,7.258,0,0,1,1.663,2.491,8,8,0,0,1,.573,3.007,8.494,8.494,0,0,1-1.048,4.312,6.6,6.6,0,0,1-3.422,2.769v.078a4.658,4.658,0,0,1,1.9.989,5.638,5.638,0,0,1,1.225,1.562,7.209,7.209,0,0,1,.693,1.94,16.678,16.678,0,0,1,.3,2.115q.04.673.08,1.583c.025.606.073,1.225.138,1.858a12.345,12.345,0,0,0,.316,1.8,4.152,4.152,0,0,0,.652,1.445H101.9a6.879,6.879,0,0,1-.417-1.484c-.092-.541-.172-1.106-.236-1.7s-.119-1.2-.16-1.821-.1-1.206-.177-1.759a5.61,5.61,0,0,0-1.346-3.245,4.628,4.628,0,0,0-3.362-1.028H90v11.037H83.785ZM90-87.653h6.8A4.7,4.7,0,0,0,100-88.6a3.948,3.948,0,0,0,1.067-3.087A3.765,3.765,0,0,0,100-94.674,4.765,4.765,0,0,0,96.8-95.6H90Z" transform="translate(62.322 2.424)" fill="#dbd7d7"/>
    <path id="Path_21" data-name="Path 21" d="M115.019-83.663V-94.989h24.29l-33.027,39.5a9.2,9.2,0,0,0,9.177,8.8h27.876a9.863,9.863,0,0,0,9.847-9.562l.005-.443V-77.4L144.44-66.982v11.537H120.15l33.038-39.5v-8.617H106.271l0,30.323Z" transform="translate(79.703)" fill="#cb1e0f"/>
    <path id="Path_22" data-name="Path 22" d="M35.545-66.227H37.01v-9.517h3.656v-1.294H31.891v1.294h3.654Zm10.26,0H47.27v-5.081h5.64v5.081h1.464V-77.039H52.91V-72.6H47.27v-4.436H45.805Zm19.336.294A4.96,4.96,0,0,0,68.962-67.5a5.828,5.828,0,0,0,1.452-4.122,5.855,5.855,0,0,0-1.452-4.133,4.957,4.957,0,0,0-3.821-1.574,4.947,4.947,0,0,0-3.81,1.574,5.841,5.841,0,0,0-1.456,4.133A5.814,5.814,0,0,0,61.331-67.5a4.95,4.95,0,0,0,3.81,1.571m0-1.294a3.4,3.4,0,0,1-2.722-1.214,4.73,4.73,0,0,1-1.037-3.184,4.756,4.756,0,0,1,1.037-3.195,3.4,3.4,0,0,1,2.722-1.218,3.409,3.409,0,0,1,2.729,1.218,4.756,4.756,0,0,1,1.037,3.195,4.73,4.73,0,0,1-1.037,3.184,3.412,3.412,0,0,1-2.729,1.214m10.744,1h4.42a4.406,4.406,0,0,0,2.872-.849,2.882,2.882,0,0,0,1.034-2.358,2.5,2.5,0,0,0-1.06-2.14,3.628,3.628,0,0,0-.933-.477,2.737,2.737,0,0,0,.493-.3,2.493,2.493,0,0,0,1-2.1,2.321,2.321,0,0,0-.846-1.87,3.351,3.351,0,0,0-2.229-.711H75.885Zm1.464-9.562h2.8a2.691,2.691,0,0,1,1.6.379,1.384,1.384,0,0,1,.507,1.188,1.609,1.609,0,0,1-.551,1.356,2.833,2.833,0,0,1-1.743.431H77.35Zm0,4.539h2.876a3.421,3.421,0,0,1,1.918.422,1.509,1.509,0,0,1,.612,1.335,1.875,1.875,0,0,1-.585,1.53,2.866,2.866,0,0,1-1.842.486H77.35Zm20.511,5.023v-1.294H91.337v-3.626h5.884v-1.294H91.337v-3.3H97.78v-1.294H89.874v10.812Z" transform="translate(22.21 20.277)" fill="#fff"/>
    <path id="Path_23" data-name="Path 23" d="M70.444-73.559h2.722v-.886H70.444Zm4.56,0h2.722v-.886H75Zm4.557,0h2.722v-.886H79.561Zm4.558,0H86.84v-.886H84.119Zm4.56,0H91.4v-.886H88.679Zm4.558,0h2.721v-.886H93.237Zm4.557,0h2.721v-.886H97.794Zm4.56,0h2.721v-.886h-2.721Zm4.558,0h2.721v-.886h-2.721Zm4.558,0h2.722v-.886h-2.722Zm4.558,0h2.722v-.886h-2.722Z" transform="translate(52.01 22.509)" fill="#fff"/>
    <path id="Path_24" data-name="Path 24" d="M3.158-73.559H5.88v-.886H3.158Zm4.558,0h2.722v-.886H7.716Zm4.557,0h2.722v-.886H12.273Zm4.56,0h2.722v-.886H16.833Zm4.558,0h2.722v-.886H21.391Zm4.557,0h2.722v-.886H25.948Zm4.56,0h2.722v-.886H30.508Zm4.558,0h2.722v-.886H35.066Zm4.558,0h2.722v-.886H39.624Zm4.558,0H46.9v-.886H44.183Zm4.558,0h2.722v-.886H48.741Z" transform="translate(0 22.509)" fill="#fff"/>
    <path id="Path_25" data-name="Path 25" d="M100.511-85.957H99.93v-1.11h.582c.316,0,.69.1.69.546,0,.466-.376.564-.69.564m.624.34.087-.055a.958.958,0,0,0,.44-.849c0-.629-.429-1.007-1.151-1.007H99.469v2.892h.461v-.858h.582c.028,0,.057,0,.085,0l.051,0,.631.863h.573Z" transform="translate(74.446 12.396)" fill="#fff"/>
    <path id="Path_26" data-name="Path 26" d="M101.216-87.745a2.188,2.188,0,0,0-2.184,2.184,2.188,2.188,0,0,0,2.184,2.184A2.188,2.188,0,0,0,103.4-85.56a2.188,2.188,0,0,0-2.184-2.184m0,4.828a2.647,2.647,0,0,1-2.644-2.643,2.647,2.647,0,0,1,2.644-2.644,2.647,2.647,0,0,1,2.643,2.644,2.647,2.647,0,0,1-2.643,2.643" transform="translate(73.753 11.874)" fill="#fff"/>
  </g>
</svg>
