<svg xmlns="http://www.w3.org/2000/svg" width="62.682" height="98.993" viewBox="0 0 62.682 98.993">
  <g id="Group_16073" data-name="Group 16073" transform="translate(-379.374 -2020.588)">
    <g id="Group_10" data-name="Group 10" transform="translate(394.689 2020.588)">
      <path id="Path_387" data-name="Path 387" d="M449.37,2107.121c0,.729-.2.915-.916.908-1.968-.018-7.748-.022-13.473-.022v3.3c4.577,0,8.8,0,10.19-.017.74-.01.922.216.9.925-.051,1.647-.016,3.3-.016,4.947,0,2.42,0,2.392,2.385,2.411.7.005.956-.146.93-.9-.058-1.647-.018-3.3-.018-4.946,0-2.514,0-2.493,2.564-2.437.586.013.761.178.749.759-.035,1.682-.012,3.366-.012,5.05,0,2.529,0,2.5,2.532,2.472.676-.007.784-.247.776-.838-.029-2.2.016-4.4-.028-6.6-.014-.695.217-.851.872-.845,3.573.029,7.146.024,10.719.01a4.882,4.882,0,0,0,4.917-4.888c.009-.859.046-1.721-.012-2.576-.045-.663.208-.812.821-.791,1.27.043,2.542.014,3.813.012a4.9,4.9,0,0,0,5.276-5.256q0-10.048,0-20.1c0-6.63-.021-13.261.009-19.891a8.268,8.268,0,0,0-4.521-7.74c-2.181-1.229-4.346-2.489-6.564-3.645a23,23,0,0,1-7.266-5.279,4.588,4.588,0,0,0-3.1-1.453c-.722-.087-1.617.5-2.092-.073-.435-.523-.416-1.417-.617-2.141a5.021,5.021,0,0,0-4.139-3.678c-1.4-.151-1.4-.151-1.4-1.534a6.413,6.413,0,0,0,0-.721,1.633,1.633,0,0,1,.973-1.859,4.764,4.764,0,0,0,2.216-5.315,4.9,4.9,0,0,0-4.461-3.787,4.953,4.953,0,0,0-5.063,3.266,4.621,4.621,0,0,0,1.732,5.56,2.523,2.523,0,0,1,1.314,2.829,3.81,3.81,0,0,0,0,.824c.078.608-.2.722-.762.736a4.827,4.827,0,0,0-4.814,3.855c-.148.563-.283,1.129-.421,1.694-.09.369-.2.569-.693.467a5.163,5.163,0,0,0-5.239,1.881,14.385,14.385,0,0,1-2.449,2.238v3.971c.456-.154,1.544-.309,1.964.087,3.927,3.713,4.464,5.229,7.228,6.064a3.825,3.825,0,0,0,1.017.4c1.282.631,19.774-3.645,20.91-5.932.36-.725.644-.824,1.353-.416,2.883,1.658,5.8,3.264,8.714,4.864a5.242,5.242,0,0,1,2.878,4.966q-.01,17.11.015,34.22c0,.8-.182,1.065-1.01,1.025a40.222,40.222,0,0,0-4.327,0c-.992.057-1.316-.162-1.311-1.254.052-9.654.015-19.309.054-28.963,0-.963-.269-1.192-1.189-1.163-2.13.065-2.132.019-2.132,2.153v20.408q0,10.616,0,21.233c0,1.867-.532,2.408-2.37,2.409-4.363,0-8.727-.026-13.09.023-.882.01-1.057-.252-1.055-1.087m-3.266-81.391a1.637,1.637,0,1,1,1.572,1.625A1.725,1.725,0,0,1,449.365,2025.557Zm-3.044,15.648c.273-.916.5-1.847.728-2.775a1.653,1.653,0,0,1,1.715-1.333c.753-.029,1.508-.006,2.263-.006.72,0,1.44-.016,2.16,0a1.684,1.684,0,0,1,1.782,1.385c.214.9.436,1.793.7,2.677a.717.717,0,0,1-.338.943c-1.294.838-2.579,1.691-3.844,2.571a.753.753,0,0,1-1-.037q-1.862-1.28-3.76-2.51C446.368,2041.892,446.183,2041.666,446.321,2041.2Zm4.761,8.785-.007,0Zm-.079-.011-.164.063A.284.284,0,0,1,451,2049.979Zm-12.225-4.861a7.115,7.115,0,0,1,2.593-2.069c.068-.005.137,0,.206,0a1.645,1.645,0,0,1,1.044.368c1.8,1.2,3.593,2.4,5.406,3.58.436.283.55.5.185.945-.713.878-1.38,1.8-2.042,2.715-.266.37-.453.49-.868.137-2.065-1.759-4.159-3.482-6.238-5.223C438.928,2045.456,438.689,2045.4,438.778,2045.117Zm2.727,7.168.142-.152.845.679A.947.947,0,0,1,441.5,2052.286Zm18.615.231c.229-.146.385-.243.385-.243A.5.5,0,0,1,460.119,2052.517Zm2.84-6.955c-2.106,1.763-4.222,3.514-6.323,5.282-.314.265-.491.236-.726-.087-.705-.972-1.42-1.938-2.162-2.883-.283-.36-.239-.555.135-.8,1.891-1.243,3.769-2.507,5.653-3.762a1.434,1.434,0,0,1,.922-.268,6.078,6.078,0,0,1,2.76,2.056C463.325,2045.386,463.095,2045.448,462.96,2045.561Zm13.6,54.2h-1.646c-2.687,0-2.676,0-2.487-2.706.03-.427.127-.607.585-.6q2.726.03,5.452,0c.458,0,.556.174.584.6C479.182,2099.079,478.568,2099.764,476.564,2099.766Z" transform="translate(-434.981 -2020.588)" fill="#dbd7d7"/>
    </g>
    <g id="Group_11" data-name="Group 11" transform="translate(379.374 2020.588)">
      <path id="Path_388" data-name="Path 388" d="M427.021,2108.008c-5.816,0-11.754,0-13.755.022-.717.007-.917-.179-.916-.908.024-10.34.019-36.656.01-47a4.7,4.7,0,0,1,.324-1.273l13.143-10.337s.538-.86,1.267-.438q1.235.715,2.479,1.417v-3.818l-.067-.036a17.2,17.2,0,0,1-5.215-3.935,5.163,5.163,0,0,0-5.239-1.881c-.5.1-.6-.1-.693-.467-.137-.565-.273-1.131-.421-1.694a4.826,4.826,0,0,0-4.814-3.855c-.559-.014-.84-.127-.762-.736a3.808,3.808,0,0,0,0-.824,2.523,2.523,0,0,1,1.314-2.829,4.621,4.621,0,0,0,1.732-5.56,4.953,4.953,0,0,0-5.063-3.266,4.9,4.9,0,0,0-4.461,3.787,4.764,4.764,0,0,0,2.216,5.315,1.633,1.633,0,0,1,.973,1.859,6.421,6.421,0,0,0,0,.721c0,1.383,0,1.383-1.4,1.534a5.022,5.022,0,0,0-4.139,3.678c-.2.725-.183,1.619-.617,2.141-.475.571-1.37-.013-2.092.073a4.588,4.588,0,0,0-3.1,1.453,23,23,0,0,1-7.266,5.279c-2.219,1.156-4.384,2.416-6.565,3.645a8.268,8.268,0,0,0-4.521,7.74c.03,6.63.009,13.261.009,19.891q0,10.049,0,20.1a4.9,4.9,0,0,0,5.276,5.256c1.271,0,2.543.03,3.813-.012.613-.021.866.128.821.791-.058.855-.021,1.717-.012,2.576a4.882,4.882,0,0,0,4.917,4.888c3.573.014,7.146.019,10.719-.01.655-.006.886.151.872.845-.044,2.2,0,4.4-.028,6.6-.008.591.1.831.776.838,2.532.028,2.532.057,2.532-2.472,0-1.683.023-3.367-.012-5.05-.012-.582.163-.746.749-.759,2.564-.056,2.564-.077,2.564,2.437,0,1.649.04,3.3-.018,4.946-.026.75.231.9.929.9,2.385-.018,2.385.01,2.385-2.411,0-1.649.035-3.3-.016-4.947-.022-.709.161-.934.9-.925,1.423.019,5.786.019,10.471.017Zm-7.921-64.591a1.645,1.645,0,0,1,1.044-.368c.069,0,.138,0,.206,0a7.116,7.116,0,0,1,2.594,2.069c.089.281-.151.338-.286.452-2.079,1.741-4.174,3.465-6.238,5.223-.415.353-.6.233-.868-.137-.662-.919-1.329-1.836-2.042-2.715-.365-.449-.251-.661.185-.945C415.507,2045.82,417.3,2044.615,419.1,2043.416Zm-10.018-17.832a1.637,1.637,0,1,1,1.7,1.6A1.722,1.722,0,0,1,409.082,2025.584Zm-3.028,15.571c.262-.884.483-1.78.7-2.677a1.684,1.684,0,0,1,1.781-1.385c.72-.019,1.44,0,2.16,0,.754,0,1.51-.023,2.263.006a1.652,1.652,0,0,1,1.715,1.333c.23.929.456,1.859.729,2.775.138.462-.048.687-.4.919q-1.894,1.232-3.76,2.51a.753.753,0,0,1-1,.037c-1.265-.88-2.55-1.733-3.844-2.571A.717.717,0,0,1,406.053,2041.156ZM398.5,2045.1a6.078,6.078,0,0,1,2.76-2.056,1.434,1.434,0,0,1,.922.268c1.884,1.255,3.762,2.519,5.653,3.762.373.246.418.44.135.8-.742.944-1.457,1.91-2.162,2.883-.234.323-.412.352-.726.087-2.1-1.769-4.217-3.52-6.323-5.282C398.626,2045.448,398.4,2045.386,398.5,2045.1Zm-11.7,54.667h-1.646c-2,0-2.617-.687-2.488-2.708.028-.427.126-.606.584-.6q2.726.03,5.452,0c.458,0,.555.176.585.6C389.478,2099.767,389.489,2099.766,386.8,2099.766Zm21.233,8.269c-4.363-.05-8.727-.021-13.09-.023-1.838,0-2.37-.542-2.37-2.409q0-10.616,0-21.233v-20.408c0-2.134,0-2.087-2.132-2.153-.92-.028-1.192.2-1.188,1.163.04,9.654,0,19.309.054,28.963.006,1.092-.319,1.312-1.31,1.254a40.222,40.222,0,0,0-4.327,0c-.828.041-1.012-.229-1.01-1.025q.039-17.11.015-34.22a5.242,5.242,0,0,1,2.878-4.966c2.917-1.6,5.831-3.206,8.714-4.864.709-.408,1.353.416,1.353.416l13.1,10.257a6.556,6.556,0,0,1,.356,1.574c-.009,10.2-.017,36.383.013,46.587C409.092,2107.783,408.918,2108.045,408.035,2108.035Zm12.039-55.9" transform="translate(-379.374 -2020.588)" fill="#dbd7d7"/>
    </g>
  </g>
</svg>
