<svg xmlns="http://www.w3.org/2000/svg" width="80.082" height="80" viewBox="0 0 80.082 80">
  <g id="Group_15" data-name="Group 15" transform="translate(731.399 -1849.011)">
    <path id="Path_391" data-name="Path 391" d="M-694.707,1849.011h6.867c1.565.219,3.143.358,4.685.722,15.317,3.617,25.394,12.945,30.307,27.868a40.206,40.206,0,0,1,1.531,7.933v6.867a55.066,55.066,0,0,1-.966,5.834,40.008,40.008,0,0,1-45.249,30.284,38.607,38.607,0,0,1-24.519-13.952c-8.128-9.846-11.054-21.221-8.392-33.661,3.291-15.375,12.834-25.4,27.723-30.344A39.527,39.527,0,0,1-694.707,1849.011Zm3.519,17.432a15.3,15.3,0,0,1,3.135.321,17.436,17.436,0,0,1,14.259,17.749,17.077,17.077,0,0,1-7.071,13.481c-.662.508-.669.513.076.858a24.807,24.807,0,0,1,7.138,4.961,24.576,24.576,0,0,1,6.153,10c.2.627.413.7.858.207.61-.675,1.285-1.293,1.872-1.986a34.68,34.68,0,0,0,8.592-24.7,34.178,34.178,0,0,0-1.638-9.173,35.17,35.17,0,0,0-37.4-24.122,34.506,34.506,0,0,0-13.262,4.27,35.1,35.1,0,0,0-17.566,35.875A34.519,34.519,0,0,0-716,1913.918c.665.666.671.653.967-.2a24.93,24.93,0,0,1,13.152-14.806c.859-.417.85-.4.123-.976-5.267-4.183-7.661-9.636-6.838-16.311A17.511,17.511,0,0,1-691.188,1866.443Zm-.112,35.076c-.624,0-1.249-.023-1.871.008a9.123,9.123,0,0,0-1.39.179c-8.421,1.732-13.879,6.683-16.229,14.986-.372,1.315-.338,1.327.813,2.04A34.823,34.823,0,0,0-687.4,1923.9a34.687,34.687,0,0,0,15.273-5.443.982.982,0,0,0,.512-1.211A19.945,19.945,0,0,0-691.3,1901.519Zm.064-30.14a12.561,12.561,0,0,0-12.625,12.477,12.613,12.613,0,0,0,12.511,12.7,12.625,12.625,0,0,0,12.665-12.549A12.552,12.552,0,0,0-691.236,1871.379Z" fill="#dbd7d7"/>
  </g>
</svg>
