<svg id="Group_16075" data-name="Group 16075" xmlns="http://www.w3.org/2000/svg" xmlns:xlink="http://www.w3.org/1999/xlink" width="72.815" height="88.814" viewBox="0 0 72.815 88.814">
  <defs>
    <clipPath id="clip-path">
      <rect id="Rectangle_15" data-name="Rectangle 15" width="72.815" height="88.814" fill="none" stroke="#dbd7d7" stroke-width="4"/>
    </clipPath>
  </defs>
  <g id="Group_16074" data-name="Group 16074" clip-path="url(#clip-path)">
    <path id="Path_3008" data-name="Path 3008" d="M165.506,164.024a16.606,16.606,0,0,1-2.11-6.579" transform="translate(-116.333 -112.096)" fill="none" stroke="#dbd7d7" stroke-linecap="round" stroke-linejoin="round" stroke-width="4"/>
    <path id="Path_3009" data-name="Path 3009" d="M83.939,157.012a19.329,19.329,0,0,1-1.857,6.7" transform="translate(-58.44 -111.787)" fill="none" stroke="#dbd7d7" stroke-linecap="round" stroke-linejoin="round" stroke-width="4"/>
    <path id="Path_3010" data-name="Path 3010" d="M64.369,85.852c.952,11.957,7.649,21.026,9.358,22.739,1.37,1.372,4.809,2.062,8.273,2.077h.254" transform="translate(-45.829 -61.124)" fill="none" stroke="#dbd7d7" stroke-linecap="round" stroke-linejoin="round" stroke-width="4"/>
    <path id="Path_3011" data-name="Path 3011" d="M104.8,12.808C101.556,7.835,96.2,5.5,90.1,5.5S78.647,7.829,75.41,12.808" transform="translate(-53.689 -3.917)" fill="none" stroke="#dbd7d7" stroke-linecap="round" stroke-linejoin="round" stroke-width="4"/>
    <path id="Path_3012" data-name="Path 3012" d="M126.462,110.668h.254c3.464-.015,6.9-.7,8.273-2.077,1.709-1.712,8.406-10.782,9.358-22.739" transform="translate(-90.037 -61.124)" fill="none" stroke="#dbd7d7" stroke-linecap="round" stroke-linejoin="round" stroke-width="4"/>
    <path id="Path_3013" data-name="Path 3013" d="M73.81,193.229c-1.928-7.5-20.72-12.943-20.72-12.943s-2.649,6.609-12.766,6.609-12.766-6.609-12.766-6.609S8.765,185.727,6.838,193.229s-1.2,16.8-1.2,16.8,11.557,5.561,34.691,5.561,34.69-5.561,34.69-5.561S75.737,200.732,73.81,193.229Z" transform="translate(-3.916 -128.358)" fill="none" stroke="#dbd7d7" stroke-linecap="round" stroke-linejoin="round" stroke-width="4"/>
    <path id="Path_3014" data-name="Path 3014" d="M68.771,31.2A111.782,111.782,0,0,0,85.047,32.42,111.788,111.788,0,0,0,101.323,31.2" transform="translate(-48.963 -22.215)" fill="none" stroke="#dbd7d7" stroke-linecap="round" stroke-linejoin="round" stroke-width="4"/>
    <path id="Path_3015" data-name="Path 3015" d="M87.824,96.165c2.1-3.075,5.022-19.225,1.137-24.247-4.3-5.565-5.531-11.332-10.473-11.011-12.308.8-11.569-5.6-21.812-1.966-6.127,2.174-7.893,7.412-12.2,12.976-3.885,5.023-.963,21.172,1.137,24.247" transform="translate(-30.311 -41.162)" fill="none" stroke="#dbd7d7" stroke-linecap="round" stroke-linejoin="round" stroke-width="4"/>
    <line id="Line_20" data-name="Line 20" y2="0.848" transform="translate(39.236 68.941)" fill="none" stroke="#dbd7d7" stroke-linecap="round" stroke-linejoin="round" stroke-width="4"/>
    <line id="Line_21" data-name="Line 21" y2="0.848" transform="translate(39.236 77.604)" fill="none" stroke="#dbd7d7" stroke-linecap="round" stroke-linejoin="round" stroke-width="4"/>
    <path id="Path_3016" data-name="Path 3016" d="M44.9,55.382s1.715-14.71,8.769-24.509" transform="translate(-31.965 -21.981)" fill="none" stroke="#dbd7d7" stroke-linecap="round" stroke-linejoin="round" stroke-width="4"/>
    <path id="Path_3017" data-name="Path 3017" d="M186.231,55.382s-1.715-14.71-8.769-24.509" transform="translate(-126.347 -21.981)" fill="none" stroke="#dbd7d7" stroke-linecap="round" stroke-linejoin="round" stroke-width="4"/>
    <path id="Path_3018" data-name="Path 3018" d="M102.824,117.446s-5.232,5.383-7.917,6.6-1.892-2.484-8.1-2.484-5.412,3.7-8.1,2.484-7.92-6.711-7.92-6.711" transform="translate(-50.401 -83.536)" fill="none" stroke="#dbd7d7" stroke-linecap="round" stroke-linejoin="round" stroke-width="4"/>
    <path id="Path_3019" data-name="Path 3019" d="M123.78,149.671a8.4,8.4,0,0,0-4.136,0" transform="translate(-85.183 -106.376)" fill="none" stroke="#dbd7d7" stroke-linecap="round" stroke-linejoin="round" stroke-width="4"/>
  </g>
</svg>
