<svg xmlns="http://www.w3.org/2000/svg" width="78.645" height="78.637" viewBox="0 0 78.645 78.637">
  <g id="Group_14" data-name="Group 14" transform="translate(-63.849 -1957.672)">
    <path id="Path_390" data-name="Path 390" d="M63.849,2033.153A75.075,75.075,0,0,1,68.533,2027q13.389-17.021,26.833-34c6.846-8.626,13.717-17.234,20.8-25.67.644-.766.641-.768-.23-1.215a31.972,31.972,0,0,0-13.872-3.675c-.485-.013-.968-.074-1.452-.107a2.364,2.364,0,0,1-1.043-4.472c.11-.065.222-.125.333-.188h3.989a1.531,1.531,0,0,0,.291.086,37.618,37.618,0,0,1,15.205,4.789.7.7,0,0,0,1.043-.174,13.052,13.052,0,0,1,8.007-4.7h3.682c.147.039.292.086.441.117a12.269,12.269,0,0,1,9.567,15.026,12.457,12.457,0,0,1-4.1,6.514.745.745,0,0,0-.15,1.157,23.738,23.738,0,0,1,2.016,4.042,37.846,37.846,0,0,1,2.14,19.344,40.276,40.276,0,0,1-7.109,18.314c-.283.4-.145.617.118.917a67.89,67.89,0,0,1,6.955,9.335,2.449,2.449,0,0,1-.644,3.5,2.42,2.42,0,0,1-3.427-.97,71.157,71.157,0,0,0-5.853-7.964c-.466-.555-.7-.507-1.17-.028a27.66,27.66,0,0,1-9.587,6.476,19.814,19.814,0,0,1-9.823,1.523,12.161,12.161,0,0,1-10.732-12.488,11.927,11.927,0,0,1,7.19-10.822c3.442-1.662,7.016-1.3,10.552-.266a31.487,31.487,0,0,1,11.626,6.8c1.12.961,1.126.965,1.921-.341a36.751,36.751,0,0,0,5.211-24.9,27.987,27.987,0,0,0-3.039-9.2c-.281-.532-.459-.711-1.034-.234-4.6,3.817-9.211,7.633-13.874,11.378q-12.2,9.794-24.465,19.5-13.35,10.564-26.761,21.049c-1.743,1.369-3.181,1.093-4.24-.763Zm16.96-14.025.122.132c.233-.174.471-.343.7-.523,12.816-10.127,25.648-20.234,38.328-30.531,3.512-2.852,6.986-5.751,10.5-8.606.548-.446.6-.789.1-1.29-.561-.558-1.056-1.181-1.6-1.753-.961-1-.969-.993-1.991-.072a2.352,2.352,0,0,1-3.319-.012,2.316,2.316,0,0,1-.031-3.366c1.641-1.684,3.318-3.335,4.987-4.992a2.25,2.25,0,0,1,1.51-.664,2.365,2.365,0,0,1,2.289,1.374,2.2,2.2,0,0,1-.479,2.676c-.544.515-.438.806.042,1.273a29.547,29.547,0,0,1,2.273,2.489c.413.507.672.438,1.086.028a7.452,7.452,0,0,0-9.088-11.729,14.411,14.411,0,0,0-2.923,2.8c-5.316,6.085-10.38,12.379-15.427,18.686q-12.171,15.208-24.253,30.487C82.677,2016.727,81.747,2017.93,80.809,2019.127Zm32.591,11.044a11.841,11.841,0,0,0,1.606-.01,21.683,21.683,0,0,0,12.726-6.786c.354-.363.332-.591-.045-.926a36.679,36.679,0,0,0-5.293-4.034,17.828,17.828,0,0,0-9.573-3.024,7.455,7.455,0,0,0-7.1,9.121A7.3,7.3,0,0,0,113.4,2030.171Z" transform="translate(0 0)" fill="#dbd7d7"/>
  </g>
</svg>
