<svg xmlns="http://www.w3.org/2000/svg" width="27.648" height="27.648" viewBox="0 0 27.648 27.648">
  <g id="Social" transform="translate(0)">
    <path id="_" data-name="" d="M13.824,27.648A13.732,13.732,0,0,1,1.88,20.824,13.9,13.9,0,0,1,0,13.84,13.483,13.483,0,0,1,1.88,6.857,13.725,13.725,0,0,1,6.84,1.9,14.014,14.014,0,0,1,13.824,0V.031A13.737,13.737,0,0,1,25.768,6.857a13.471,13.471,0,0,1,1.88,6.983,13.884,13.884,0,0,1-1.88,6.983,13.732,13.732,0,0,1-11.944,6.824Zm3.933-17.6c.074,0,.112.043.112.126l-.19.284L11.107,16.4v.063l2.149,1.706,3.538,2.686a1.136,1.136,0,0,0,.472.113.846.846,0,0,0,.287-.05.867.867,0,0,0,.411-.285,2.075,2.075,0,0,1,.127-.221L20.555,7.963c0-.252-.1-.4-.285-.443a.738.738,0,0,0-.2-.025,1.431,1.431,0,0,0-.372.057l-.285.095-14.029,5.5a1.261,1.261,0,0,0-.331.238.36.36,0,0,0-.111.331.63.63,0,0,0,.316.443l.284.158,3.476,1.168,8.373-5.308.221-.095A.417.417,0,0,1,17.757,10.048Z" transform="translate(0 0)" fill="#cb1e0f"/>
  </g>
</svg>
