<svg xmlns="http://www.w3.org/2000/svg" width="34.56" height="27.648" viewBox="0 0 34.56 27.648">
  <path id="_" data-name="" d="M34.56,3.266a14.761,14.761,0,0,1-3.551,3.655v.894a19.955,19.955,0,0,1-1.3,7,20.8,20.8,0,0,1-3.866,6.377,19.151,19.151,0,0,1-6.312,4.666,20.852,20.852,0,0,1-8.64,1.789,20.475,20.475,0,0,1-5.76-.817A19.749,19.749,0,0,1,0,24.537q.828.078,1.7.078a14.262,14.262,0,0,0,4.695-.778,14.779,14.779,0,0,0,4.1-2.178,7.154,7.154,0,0,1-4.1-1.419A6.741,6.741,0,0,1,3.906,16.8a7.15,7.15,0,0,0,1.3.117,7.416,7.416,0,0,0,1.854-.233A7.052,7.052,0,0,1,2.15,12.93a7.214,7.214,0,0,1-.769-3.091V9.722a6.732,6.732,0,0,0,3.235.894A7.087,7.087,0,0,1,2.308,8.108,6.767,6.767,0,0,1,1.46,4.783a6.863,6.863,0,0,1,.947-3.5A20.15,20.15,0,0,0,8.837,6.416,20.229,20.229,0,0,0,17,8.594,8,8,0,0,1,16.846,7a6.728,6.728,0,0,1,.947-3.5A7.108,7.108,0,0,1,20.377.953,6.9,6.9,0,0,1,23.908,0a7.046,7.046,0,0,1,2.841.583,6.973,6.973,0,0,1,2.328,1.633,13.9,13.9,0,0,0,4.5-1.711,6.713,6.713,0,0,1-1.2,2.236,7.261,7.261,0,0,1-1.913,1.653A14.558,14.558,0,0,0,34.56,3.266Z" fill="#cb1e0f"/>
</svg>
