<svg xmlns="http://www.w3.org/2000/svg" width="27.648" height="27.648" viewBox="0 0 27.648 27.648">
  <path id="_" data-name="" d="M5.3,27.648a4.986,4.986,0,0,1-2.573-.7A5.585,5.585,0,0,1,.745,24.993,5.135,5.135,0,0,1,0,22.307V9.921H8.022A6.958,6.958,0,0,0,7.134,16.3a6.8,6.8,0,0,0,2.822,3.538,6.767,6.767,0,0,0,2.869,1.091,7.04,7.04,0,0,0,.968.065,7.272,7.272,0,0,0,2.06-.3,6.972,6.972,0,0,0,2.664-1.484,6.746,6.746,0,0,0,1.775-2.528,7.131,7.131,0,0,0,.539-3.286A7.66,7.66,0,0,0,19.594,9.89h8.022V22.307a5.207,5.207,0,0,1-.729,2.686,5.379,5.379,0,0,1-4.662,2.654H5.3Zm8.524-8.279a5.566,5.566,0,0,1-2.758-.712,5.389,5.389,0,0,1-2-7.393,5.484,5.484,0,0,1,2-1.991,5.362,5.362,0,0,1,2.742-.743,5.276,5.276,0,0,1,2.727.743,5.537,5.537,0,0,1,1.982,1.991,5.38,5.38,0,0,1-1.982,7.393A5.415,5.415,0,0,1,13.824,19.369Zm-.016-9.416a3.948,3.948,0,0,0-2.013.536,4.035,4.035,0,0,0-1.458,1.454,4,4,0,0,0,0,4.012,4.167,4.167,0,0,0,1.458,1.469,3.856,3.856,0,0,0,2.013.552,3.94,3.94,0,0,0,2.014-.537,4.028,4.028,0,0,0,1.458-1.453,4.035,4.035,0,0,0,0-4.029,4.007,4.007,0,0,0-1.458-1.469A3.95,3.95,0,0,0,13.808,9.953Zm13.811-.916h-8.5a.551.551,0,0,1-.444-.189A7.316,7.316,0,0,0,15.536,7.14a6.884,6.884,0,0,0-3.487.016A7.515,7.515,0,0,0,8.909,8.878a.458.458,0,0,1-.317.158H.19L.031,9.005V7.8c0,.046-.006.061-.01.065C.007,7.856,0,7.3,0,6.351A14.078,14.078,0,0,1,.063,4.9,5.14,5.14,0,0,1,2.187,1.074l.127-.031V6.824h1.11V.853A.847.847,0,0,1,3.487.427,1.2,1.2,0,0,1,3.932.221L4.216.158V6.824H5.359V.031h.729V6.824H7.229V0h15a5.188,5.188,0,0,1,2.648.71,5.628,5.628,0,0,1,1.966,1.912,5.057,5.057,0,0,1,.778,2.59c.021.507.031,1.127.031,1.9l-.009.66c-.011.756-.016,1.128-.019,1.267ZM22.789,2.29c-.472,0-.957.005-1.483.016a.8.8,0,0,0-.633.253.97.97,0,0,0-.223.663V6.13a.878.878,0,0,0,.238.647.844.844,0,0,0,.618.238h2.918a.821.821,0,0,0,.887-.885V3.191a.876.876,0,0,0-.238-.648.84.84,0,0,0-.618-.236C23.74,2.3,23.26,2.29,22.789,2.29Z" fill="#cb1e0f"/>
</svg>
