<svg id="Group_16099" data-name="Group 16099" xmlns="http://www.w3.org/2000/svg" xmlns:xlink="http://www.w3.org/1999/xlink" width="20.744" height="20.744" viewBox="0 0 20.744 20.744">
  <defs>
    <clipPath id="clip-path">
      <rect id="Rectangle_25" data-name="Rectangle 25" width="20.744" height="20.744" fill="#cb1e0f"/>
    </clipPath>
  </defs>
  <g id="Group_16098" data-name="Group 16098" transform="translate(0 0)" clip-path="url(#clip-path)">
    <path id="Path_3369" data-name="Path 3369" d="M10.372,0A10.37,10.37,0,0,0,1.657,15.993L.081,19.464a.905.905,0,0,0,.825,1.28.9.9,0,0,0,.24-.033L5.487,19.52A10.372,10.372,0,1,0,10.372,0m0,18.932a8.547,8.547,0,0,1-4.31-1.166.908.908,0,0,0-.7-.091l-2.836.778.988-2.176a.9.9,0,0,0-.09-.9,8.559,8.559,0,1,1,6.945,3.559" transform="translate(0 0)" fill="#cb1e0f" fill-rule="evenodd"/>
    <path id="Path_3370" data-name="Path 3370" d="M17.5,15.242a1.773,1.773,0,0,0-1.511-.341c-.393.161-.643.775-.9,1.089a.376.376,0,0,1-.487.106,6.846,6.846,0,0,1-3.416-2.926.419.419,0,0,1,.053-.572,2.312,2.312,0,0,0,.621-1.008,2.205,2.205,0,0,0-.278-1.192A2.823,2.823,0,0,0,10.7,9.071a1.205,1.205,0,0,0-1.31.194,2.66,2.66,0,0,0-.922,2.107,2.982,2.982,0,0,0,.083.669,5.531,5.531,0,0,0,.641,1.478,11.586,11.586,0,0,0,.67,1.018,10.335,10.335,0,0,0,2.9,2.7,8.779,8.779,0,0,0,1.811.861,4.018,4.018,0,0,0,2.109.333A2.552,2.552,0,0,0,18.6,17.007a1.238,1.238,0,0,0,.089-.726c-.11-.5-.786-.8-1.19-1.039" transform="translate(-3.139 -3.317)" fill="#cb1e0f" fill-rule="evenodd"/>
  </g>
</svg>
